<svg xmlns="http://www.w3.org/2000/svg" width="260" height="603" fill="none"><path fill="url(#a)" d="M133 0h243v6H133z" transform="rotate(90 133 0)"/><path stroke="url(#b)" stroke-width="6" d="M257 0v25.944c0 59.371-50.461 109.762-95.437 150.674-12.492 11.363-20.476 21.631-25.575 30.592C131.87 214.447 130 222.674 130 231"/><path stroke="url(#c)" stroke-width="6" d="M3 0v25.944c0 59.371 50.461 109.762 95.437 150.674 12.492 11.363 20.476 21.631 25.575 30.592C128.13 214.447 130 222.674 130 231"/><path fill="url(#d)" d="M133 350h253v6H133z" transform="rotate(90 133 350)"/><path stroke="url(#e)" stroke-width="6" d="M257 592v-25.944c0-59.371-50.461-109.762-95.437-150.674-12.492-11.363-20.476-21.631-25.575-30.592C131.87 377.553 130 369.326 130 361"/><path stroke="url(#f)" stroke-width="6" d="M3 592v-25.944c0-59.371 50.461-109.762 95.437-150.674 12.492-11.363 20.476-21.631 25.575-30.592C128.13 377.553 130 369.326 130 361"/><defs><linearGradient id="a" x1="142.47" x2="354.594" y1="3" y2="10.642" gradientUnits="userSpaceOnUse"><stop stop-color="#141D1F" stop-opacity="0"/><stop offset="1" stop-color="#141D1F"/></linearGradient><linearGradient id="b" x1="262" x2="135.895" y1="0" y2="203.804" gradientUnits="userSpaceOnUse"><stop stop-color="#141D1F" stop-opacity="0"/><stop offset="1" stop-color="#141D1F"/></linearGradient><linearGradient id="c" x1="-2" x2="124.105" y1="0" y2="203.804" gradientUnits="userSpaceOnUse"><stop stop-color="#141D1F" stop-opacity="0"/><stop offset="1" stop-color="#141D1F"/></linearGradient><linearGradient id="d" x1="142.86" x2="363.689" y1="353" y2="361.283" gradientUnits="userSpaceOnUse"><stop stop-color="#141D1F"/><stop offset="1" stop-color="#141D1F" stop-opacity="0"/></linearGradient><linearGradient id="e" x1="262" x2="135.895" y1="592" y2="388.196" gradientUnits="userSpaceOnUse"><stop stop-color="#141D1F" stop-opacity="0"/><stop offset="1" stop-color="#141D1F"/></linearGradient><linearGradient id="f" x1="-2" x2="124.105" y1="592" y2="388.196" gradientUnits="userSpaceOnUse"><stop stop-color="#141D1F" stop-opacity="0"/><stop offset="1" stop-color="#141D1F"/></linearGradient></defs></svg>